<svg xmlns="http://www.w3.org/2000/svg" viewBox="0 0 960 620" width="960" height="620">
  <style>
    text { font-family: "SF Mono","Fira Code","Cascadia Code","Courier New",monospace; fill: #e2e8f0; }
  </style>
  <defs>
    <linearGradient id="bg" x1="0%" y1="0%" x2="100%" y2="100%">
      <stop offset="0%" stop-color="#0f0f1a"/>
      <stop offset="100%" stop-color="#1a1a2e"/>
    </linearGradient>
    <marker id="arr-blue" markerWidth="8" markerHeight="6" refX="7" refY="3" orient="auto">
      <polygon points="0 0, 8 3, 0 6" fill="#3b82f6"/>
    </marker>
    <marker id="arr-green" markerWidth="8" markerHeight="6" refX="7" refY="3" orient="auto">
      <polygon points="0 0, 8 3, 0 6" fill="#10b981"/>
    </marker>
    <marker id="arr-purple" markerWidth="8" markerHeight="6" refX="7" refY="3" orient="auto">
      <polygon points="0 0, 8 3, 0 6" fill="#a855f7"/>
    </marker>
    <marker id="arr-orange" markerWidth="8" markerHeight="6" refX="7" refY="3" orient="auto">
      <polygon points="0 0, 8 3, 0 6" fill="#f97316"/>
    </marker>
    <marker id="arr-gray" markerWidth="8" markerHeight="6" refX="7" refY="3" orient="auto">
      <polygon points="0 0, 8 3, 0 6" fill="#6b7280"/>
    </marker>
  </defs>
  <rect width="960" height="620" fill="url(#bg)"/>
  <text x="480" y="30" text-anchor="middle" font-size="15" font-weight="700" fill="#e2e8f0">RAG Pipeline — Industrial Datasheet RAG</text>
  <rect x="32" y="54" width="900" height="80" rx="6" fill="none" stroke="#334155" stroke-width="1" stroke-dasharray="6,3"/>
  <rect x="32" y="50" width="78" height="16" rx="3" fill="#052e16"/>
  <text x="71" y="62" text-anchor="middle" font-size="11" fill="#10b981">INGEST</text>
  <rect x="50" y="68" width="130" height="54" rx="6" fill="#1c1917" stroke="#ea580c" stroke-width="1.5"/>
  <text x="115" y="90" text-anchor="middle" font-size="13" font-weight="700">PDF Datasheets</text>
  <text x="115" y="108" text-anchor="middle" font-size="11" fill="#94a3b8">5 Infineon MOSFETs</text>
  <line x1="180" y1="95" x2="240" y2="95" stroke="#f97316" stroke-width="2" marker-end="url(#arr-orange)"/>
  <rect x="171.0" y="84" width="88.0" height="14" rx="3" fill="#0f0f1a" opacity="0.92"/>
  <text x="215" y="96" text-anchor="middle" font-size="11" fill="#f97316">POST /ingest</text>
  <rect x="250" y="68" width="150" height="54" rx="6" fill="#0f172a" stroke="#334155" stroke-width="1.5"/>
  <text x="325" y="89" text-anchor="middle" font-size="13" font-weight="700">chunk + extract</text>
  <text x="325" y="107" text-anchor="middle" font-size="11" fill="#94a3b8">text/table split</text>
  <line x1="400" y1="95" x2="470" y2="95" stroke="#a855f7" stroke-width="2" marker-end="url(#arr-purple)"/>
  <rect x="390.0" y="84" width="101.0" height="14" rx="3" fill="#0f0f1a" opacity="0.92"/>
  <text x="440" y="96" text-anchor="middle" font-size="11" fill="#a855f7">upsert + embed</text>
  <rect x="480" y="68" width="200" height="54" rx="6" fill="#052e16" stroke="#10b981" stroke-width="1.5"/>
  <text x="580" y="88" text-anchor="middle" font-size="13" font-weight="700">Qdrant Cloud Inference</text>
  <text x="580" y="106" text-anchor="middle" font-size="11" fill="#94a3b8">all-minilm-l6-v2 embeddings</text>
  <rect x="32" y="188" width="900" height="80" rx="6" fill="none" stroke="#1e3a5f" stroke-width="1" stroke-dasharray="6,3"/>
  <rect x="32" y="184" width="74" height="16" rx="3" fill="#1e1b4b"/>
  <text x="69" y="196" text-anchor="middle" font-size="11" fill="#3b82f6">QUERY</text>
  <rect x="50" y="200" width="130" height="54" rx="6" fill="#1e1b4b" stroke="#3b82f6" stroke-width="1.5"/>
  <text x="115" y="221" text-anchor="middle" font-size="13" font-weight="700">User Query</text>
  <text x="115" y="239" text-anchor="middle" font-size="11" fill="#94a3b8">POST /query</text>
  <line x1="180" y1="227" x2="240" y2="227" stroke="#3b82f6" stroke-width="2" marker-end="url(#arr-blue)"/>
  <rect x="184.0" y="216" width="62.0" height="14" rx="3" fill="#0f0f1a" opacity="0.92"/>
  <text x="215" y="228" text-anchor="middle" font-size="11" fill="#3b82f6">question</text>
  <rect x="250" y="200" width="150" height="54" rx="6" fill="#0f172a" stroke="#334155" stroke-width="1.5"/>
  <text x="325" y="221" text-anchor="middle" font-size="13" font-weight="700">embed query</text>
  <text x="325" y="239" text-anchor="middle" font-size="11" fill="#94a3b8">same model</text>
  <line x1="400" y1="227" x2="470" y2="227" stroke="#a855f7" stroke-width="2" marker-end="url(#arr-purple)"/>
  <rect x="393.0" y="216" width="94.5" height="14" rx="3" fill="#0f0f1a" opacity="0.92"/>
  <text x="440" y="228" text-anchor="middle" font-size="11" fill="#a855f7">vector search</text>
  <rect x="480" y="200" width="200" height="54" rx="6" fill="#052e16" stroke="#10b981" stroke-width="1.5"/>
  <text x="580" y="222" text-anchor="middle" font-size="13" font-weight="700">retrieve top-5</text>
  <text x="580" y="240" text-anchor="middle" font-size="11" fill="#94a3b8">semantic ANN search</text>
  <line x1="680" y1="227" x2="750" y2="227" stroke="#10b981" stroke-width="2" marker-end="url(#arr-green)"/>
  <rect x="676.0" y="216" width="88.0" height="14" rx="3" fill="#0f0f1a" opacity="0.92"/>
  <text x="720" y="228" text-anchor="middle" font-size="11" fill="#10b981">top-5 chunks</text>
  <rect x="760" y="200" width="148" height="54" rx="6" fill="#052e16" stroke="#10b981" stroke-width="1.5"/>
  <text x="834" y="221" text-anchor="middle" font-size="13" font-weight="700">part-number rerank</text>
  <text x="834" y="239" text-anchor="middle" font-size="11" fill="#94a3b8">exact ID boost</text>
  <rect x="32" y="308" width="900" height="80" rx="6" fill="none" stroke="#334155" stroke-width="1" stroke-dasharray="6,3"/>
  <rect x="32" y="304" width="100" height="16" rx="3" fill="#1e1b4b"/>
  <text x="82" y="316" text-anchor="middle" font-size="11" fill="#a855f7">GENERATION</text>
  <text x="580" y="312" text-anchor="middle" font-size="10" fill="#6b7280">(optional — if ANTHROPIC_API_KEY set)</text>
  <line x1="835" y1="254" x2="835" y2="310" stroke="#a855f7" stroke-width="2" marker-end="url(#arr-purple)"/>
  <rect x="843" y="278" width="55.5" height="14" rx="3" fill="#0f0f1a" opacity="0.92"/>
  <text x="870.0" y="289" text-anchor="middle" font-size="11" fill="#a855f7">context</text>
  <rect x="690" y="320" width="220" height="54" rx="6" fill="#1e1b4b" stroke="#a855f7" stroke-width="1.5"/>
  <text x="800" y="342" text-anchor="middle" font-size="13" font-weight="700">Claude Haiku</text>
  <text x="800" y="360" text-anchor="middle" font-size="11" fill="#94a3b8">claude-haiku-4-5 generation</text>
  <text x="480" y="312" text-anchor="middle" font-size="10" fill="#6b7280">(no key — extractive fallback)</text>
  <rect x="370" y="320" width="200" height="54" rx="6" fill="#0f172a" stroke="#334155" stroke-width="1.5"/>
  <text x="470" y="341" text-anchor="middle" font-size="13" font-weight="700">extractive answer</text>
  <text x="470" y="359" text-anchor="middle" font-size="11" fill="#94a3b8">source-grounded text</text>
  <line x1="580" y1="254" x2="580" y2="310" stroke="#6b7280" stroke-width="2" marker-end="url(#arr-gray)"/>
  <line x1="580" y1="347" x2="580" y2="347" stroke="#6b7280" stroke-width="2" marker-end="url(#arr-gray)"/>
  <rect x="544.0" y="336" width="62.0" height="14" rx="3" fill="#0f0f1a" opacity="0.92"/>
  <text x="575" y="348" text-anchor="middle" font-size="11" fill="#6b7280">fallback</text>
  <rect x="32" y="428" width="900" height="80" rx="6" fill="none" stroke="#334155" stroke-width="1" stroke-dasharray="6,3"/>
  <rect x="32" y="424" width="70" height="16" rx="3" fill="#052e16"/>
  <text x="67" y="436" text-anchor="middle" font-size="11" fill="#10b981">OUTPUT</text>
  <line x1="800" y1="374" x2="800" y2="430" stroke="#a855f7" stroke-width="2" marker-end="url(#arr-purple)"/>
  <line x1="470" y1="374" x2="470" y2="430" stroke="#6b7280" stroke-width="2" marker-end="url(#arr-gray)"/>
  <rect x="350" y="440" width="270" height="60" rx="6" fill="#052e16" stroke="#10b981" stroke-width="1.5"/>
  <text x="485" y="462" text-anchor="middle" font-size="13" font-weight="700">Structured JSON</text>
  <text x="485" y="478" text-anchor="middle" font-size="11" fill="#94a3b8">answer + confidence + sources</text>
  <text x="485" y="494" text-anchor="middle" font-size="11" fill="#94a3b8">excerpts + scores + raw retrievals</text>
  <line x1="620" y1="470" x2="710" y2="470" stroke="#10b981" stroke-width="2" marker-end="url(#arr-green)"/>
  <rect x="626.0" y="459" width="88.0" height="14" rx="3" fill="#0f0f1a" opacity="0.92"/>
  <text x="670" y="471" text-anchor="middle" font-size="11" fill="#10b981">source cards</text>
  <rect x="720" y="440" width="180" height="60" rx="6" fill="#052e16" stroke="#10b981" stroke-width="1.5"/>
  <text x="810" y="464" text-anchor="middle" font-size="13" font-weight="700">Source Cards</text>
  <text x="810" y="482" text-anchor="middle" font-size="11" fill="#94a3b8">title + partNum</text>
  <text x="810" y="496" text-anchor="middle" font-size="11" fill="#94a3b8">URL + score + excerpt</text>
  <rect x="32" y="528" width="900" height="70" rx="6" fill="none" stroke="#334155" stroke-width="1" stroke-dasharray="6,3"/>
  <rect x="32" y="524" width="60" height="16" rx="3" fill="#1c1917"/>
  <text x="62" y="536" text-anchor="middle" font-size="11" fill="#f97316">EVAL</text>
  <rect x="50" y="540" width="140" height="50" rx="6" fill="#1c1917" stroke="#ea580c" stroke-width="1.5"/>
  <text x="120" y="559" text-anchor="middle" font-size="13" font-weight="700">GET /eval</text>
  <text x="120" y="577" text-anchor="middle" font-size="11" fill="#94a3b8">10 ground-truth Q&amp;A</text>
  <line x1="190" y1="565" x2="300" y2="565" stroke="#f97316" stroke-width="2" marker-end="url(#arr-orange)"/>
  <rect x="203.0" y="554" width="94.5" height="14" rx="3" fill="#0f0f1a" opacity="0.92"/>
  <text x="250" y="566" text-anchor="middle" font-size="11" fill="#f97316">run retrieval</text>
  <rect x="310" y="540" width="180" height="50" rx="6" fill="#0f172a" stroke="#334155" stroke-width="1.5"/>
  <text x="400" y="559" text-anchor="middle" font-size="13" font-weight="700">retrieval check</text>
  <text x="400" y="577" text-anchor="middle" font-size="11" fill="#94a3b8">same /query path</text>
  <line x1="490" y1="565" x2="600" y2="565" stroke="#f97316" stroke-width="2" marker-end="url(#arr-orange)"/>
  <rect x="529.0" y="554" width="42.5" height="14" rx="3" fill="#0f0f1a" opacity="0.92"/>
  <text x="550" y="566" text-anchor="middle" font-size="11" fill="#f97316">score</text>
  <rect x="610" y="540" width="200" height="50" rx="6" fill="#1c1917" stroke="#ea580c" stroke-width="1.5"/>
  <text x="710" y="559" text-anchor="middle" font-size="13" font-weight="700">eval metrics</text>
  <text x="710" y="577" text-anchor="middle" font-size="11" fill="#94a3b8">hitRate top1 termAcc</text>
  <line x1="810" y1="565" x2="870" y2="565" stroke="#f97316" stroke-width="2" marker-end="url(#arr-orange)"/>
  <rect x="880" y="540" width="70" height="50" rx="6" fill="#052e16" stroke="#10b981" stroke-width="1.5"/>
  <text x="915" y="570" text-anchor="middle" font-size="13" font-weight="700">1.0 / 1.0</text>
  <text x="36" y="606" font-size="11" fill="#94a3b8">Legend:</text>
  <rect x="100" y="596" width="18" height="10" rx="2" fill="#f97316"/>
  <text x="122" y="606" font-size="11" fill="#94a3b8">ingest / PDF</text>
  <rect x="228" y="596" width="18" height="10" rx="2" fill="#a855f7"/>
  <text x="250" y="606" font-size="11" fill="#94a3b8">embed / generate</text>
  <rect x="384" y="596" width="18" height="10" rx="2" fill="#10b981"/>
  <text x="406" y="606" font-size="11" fill="#94a3b8">retrieve / output</text>
  <rect x="547" y="596" width="18" height="10" rx="2" fill="#3b82f6"/>
  <text x="569" y="606" font-size="11" fill="#94a3b8">query path</text>
  <rect x="661" y="596" width="18" height="10" rx="2" fill="#6b7280"/>
  <text x="683" y="606" font-size="11" fill="#94a3b8">async / fallback</text>
</svg>